<svg xmlns="http://www.w3.org/2000/svg" xmlns:xlink="http://www.w3.org/1999/xlink" width="905" height="247" xmlns:v="https://vecta.io/nano"><style><![CDATA[.B{fill:#865d4a}.C{fill:#ac7531}.D{fill:#9f6d3a}.E{fill:#b87d29}.F{fill:#7a5452}.G{fill:#936542}.H{fill:#6d4c5a}.I{fill:#f5ad5f}.J{fill:#f7bd7f}.K{fill:#f9ce9f}.L{fill:#604463}.M{fill:#f6b56f}.N{fill:#fad6af}.O{fill:#f8c58f}.P{fill:#f4a54f}.Q{fill:#f39c3f}.R{fill:#c58521}.S{fill:#fbdebf}.T{fill:#2f2483}.U{fill:#fff}.V{fill:#ef7c00}.W{fill:#fce6cf}]]></style><path d="M0 0v83h905V0H460l1 4c-7.18 1.701-13.882 5.057-21 7 5.45 11.522 14.707 20.953 21 32-5.53 2.853-10.907 7.316-15 12l-3-4c3.478-1.795 10.513-5.616 10.887-10.039.286-3.393-3.451-7.345-5.231-9.961-4.951-7.277-10.369-14.299-14.656-22 8.228-1.904 15.861-5.778 24-8-4.215-1.769-9.464-1-14-1h-26-94H0z" class="U"/><path d="M434 9c3.035 8.008 9.142 14.988 13.975 22 1.768 2.566 5.58 6.598 5.154 9.961-.523 4.121-7.092 7.75-10.129 10.039.613 1.661 1.043 2.483 2 4 5.804-3.339 10.667-7.981 16-12-4.369-11.357-14.188-21.902-21-32 7.231-1.244 14.067-4.655 21-7l-1-4c-8.881 2.105-17.322 6.171-26 9m21 24c7.851-1.694 9.048 1.449 15 6-8.226 8.158-18.979 14.819-26 24-2.135-2.141-7.703-6.112-7.23-9.575.871-6.367 10.312-6.789 9.23-14.425-4.786 2.026-14.08 7.773-15.694 13.039-1.295 4.225 8.504 15.705 12.733 15.758 2.621.033 5.117-2.671 6.961-4.225 4.746-4.001 9.316-8.217 14-12.29 2.812-2.446 10.786-7.213 10.793-11.371.005-2.668-2.924-5.067-4.512-6.91-2.102-2.439-4.302-5.811-7.285-7.248-4.789-2.307-7.832 3.398-7.996 7.249m401 16v4h7v20h4V53h8v-4h-19m21 0v24h4V59c2.011 4.515 3.859 9.186 5 14 6.748-1.116 8.127-10.088 9-16 1.521 5.146 1 10.66 1 16h4V49h-6c-1.407 6.082-4.086 11.811-5 18-2.537-5.724-4.589-11.899-6-18h-6z" class="T"/><path d="M0 83v92h905V83H0z" fill="#f7a600"/><path d="M542 91v75c2.701-6.436 1-16.049 1-23V92h352v74c2.701-6.436 1-16.049 1-23V91H542z" fill="#fde9c0"/><path d="M543 92v74h352V92H543z" class="U"/><use xlink:href="#B" class="M"/><path d="M623 146c.839 2.627 1.373 3.161 4 4v-23h-19v5h14c-.192 3.514-.846 6.213-3.228 8.957-1.603 1.845-3.58 3.489-5.772 4.586-6.779 3.393-14.295-.395-17.914-6.547-5.946-10.105-1.235-29.106 12.914-28.706 7.562.214 10.707 8.149 18 8.71-1.72-15.443-24.275-17.727-33.671-7.812-10.838 11.438-7.537 35.489 8.671 40.174 8.22 2.376 15.186-1.264 22-5.362z" class="V"/><use xlink:href="#C" class="M"/><use xlink:href="#B" x="116" class="I"/><use xlink:href="#B" x="118" fill="#f2942f"/><path d="M721 105.468c-19.402 1.93-28.365 28.931-12.895 42 5.027 4.246 11.55 5.05 17.895 4.358 27.31-2.976 22.975-49.141-5-46.358z" class="V"/><use xlink:href="#D" class="I"/><use xlink:href="#D" x="-680" y="1" fill="#d18e19"/><path d="M599 106l1 1-1-1z" class="I"/><path d="M615 106l1 1-1-1z" class="P"/><path d="M616 106l1 1-1-1z" class="N"/><path d="M647 106v11c1.431-3.41 1.431-7.59 0-11z" class="J"/><path d="M648 106c6.687 2.806 16.767 1 24 1-6.687-2.806-16.767-1-24-1z" class="Q"/><use xlink:href="#C" x="61" y="1" class="J"/><path d="M714 106l1 1-1-1m16 0l1 1-1-1z" class="M"/><use xlink:href="#E" class="Q"/><path d="M768 106v31c1.328-3.166 1-6.581 1-10 0-6.42 1.497-15.049-1-21z" class="S"/><path d="M791 106v32c1.328-3.166 1-6.581 1-10 0-6.686 1.599-15.806-1-22z" class="J"/><path d="M792 106c2.052.874 3.747.953 6 1-2.052-.874-3.747-.953-6-1m26 0c6.687 2.806 16.767 1 24 1-6.687-2.806-16.767-1-24-1z" class="Q"/><use xlink:href="#B" x="241" y="1" class="W"/><use xlink:href="#F" class="L"/><path d="M34 139h-5c.287 11.858 11.315 16.274 22 14.699 5.23-.771 11.025-3.144 12.566-8.703.524-1.889.5-4.053.389-5.996-.563-9.82-10.369-10.374-17.955-12.239-3.27-.804-8.223-2.155-9.288-5.865-1.488-5.183 5.122-8.446 9.288-8.617 5.812-.237 10 3.668 12 8.721h5c-.878-16.031-28.23-19.958-32.442-3.996-3.349 12.688 9.473 14.156 18.442 16.637 3.544.981 9.14 2.831 9.249 7.371.106 4.428-5.549 7.119-9.248 7.619-6.969.942-12.827-3.257-15-9.631z" class="T"/><use xlink:href="#F" x="11" class="D"/><use xlink:href="#B" x="-457" y="2" class="B"/><path d="M132 139c1.173 4.474 2.122 8.43 6.044 11.351 8.775 6.537 28.146 5.504 30.608-7.351 2.352-12.281-10.067-13.79-18.652-16.158-3.184-.878-8.169-2.228-9.11-5.946-1.186-4.692 5.217-8.331 9.11-8.508 5.75-.261 10.218 3.484 12 8.612h6c-1.037-3.874-1.893-7.565-5.189-10.196-8.585-6.853-25.42-4.559-28.123 7.196-4.167 18.13 21.891 10.112 27.24 21.105 4.474 9.192-11.781 10.851-16.913 8.207-5.515-2.842-6.238-8.087-13.015-8.312z" class="T"/><use xlink:href="#D" x="-571" y="2" class="H"/><path d="M618 107l1 1-1-1z" class="N"/><path d="M648 107v44h6v-19c5.751 0 16.132-2.001 20.566 2.434 3.592 3.591 3.335 11.785 3.434 16.566h8c-3.362-6.688-.928-17.289-8-21v-2c7.556-3.929 7.831-15.448-.019-19.543C670.234 104.415 656.571 107 648 107z" class="V"/><path d="M676 107l1 1-1-1z" class="I"/><path d="M762 107v23c0 4.758-.287 9.611 2 13.96 5.886 11.195 25.561 10.805 31.583.025C801.041 134.214 798 117.878 798 107h-6c0 9.506 2.778 24.301-1.573 32.96s-16.571 8.549-20.97.025C767.57 136.328 768 131.98 768 128v-21h-6m56 0v44h6v-19c6.336 0 15.175 1.564 20.995-1.318 8.068-3.995 9.802-16.771 1.961-21.94C840.165 104.265 825.895 107 818 107z" class="V"/><path d="M845 107l1 1-1-1z" class="K"/><path d="M37 108l1 1-1-1m18 0l1 1-1-1z" class="C"/><path d="M78 108l1 1-1-1z" class="D"/><use xlink:href="#G" class="L"/><path d="M111 108l1 1-1-1z" class="D"/><use xlink:href="#G" x="33" class="L"/><path d="M142 108l1 1-1-1z" class="B"/><path d="M159 108l1 1-1-1z" class="C"/><path d="M182 108v6c.951-2.285.951-3.715 0-6z" class="G"/><path d="M183 108c3.959 1.661 8.74 1 13 1h23v4h-14c4.471 1.876 10.183 1 15 1v-6h-37z" class="L"/><path d="M235 108v45c1.661-3.959 1-8.74 1-13v-20c0-3.983.552-8.301-1-12z" class="G"/><path d="M236 108c3.699 1.552 8.017 1 12 1h21c-3.699-1.552-8.017-1-12-1h-21z" class="L"/><path d="M269 108v6c.951-2.285.951-3.715 0-6z" class="R"/><path d="M287 108c2.89 1.213 5.874.998 9 1-2.89-1.213-5.874-.998-9-1m35 0c2.89 1.213 5.874.998 9 1-2.89-1.213-5.874-.998-9-1m41 0c2.332.985 4.457.981 7 1-2.332-.985-4.457-.981-7-1z" class="L"/><path d="M370 108l1 1-1-1z" class="D"/><path d="M398 108c3.959 1.661 8.74 1 13 1h24c-3.959-1.661-8.74-1-13-1h-24z" class="L"/><path d="M435 108v6c.951-2.285.951-3.715 0-6z" class="R"/><path d="M451 108v45c1.552-3.699 1-8.017 1-12v-20c0-4.26.661-9.041-1-13z" class="G"/><use xlink:href="#E" x="-310" y="2" class="L"/><path d="M475 108l1 1-1-1z" class="E"/><path d="M476 110c2.709-.648 5.216-.942 8-1-2.92-1.223-5.837-1.476-8 1m30-2c2.613 1.098 5.164.993 8 1-2.613-1.098-5.164-.993-8-1z" class="L"/><path d="M595 108l1 1-1-1z" class="M"/><path d="M619 108l1 1-1-1m59 0l1 1-1-1m32 0l1 1-1-1m24 0l1 1-1-1z" class="P"/><path d="M847 108l1 1-1-1z" class="N"/><path d="M35 109l1 1-1-1z" class="E"/><path d="M79 109c4.41 9.323 13.029 17.185 16.298 27 1.706 5.124.702 11.655.702 17h6c0-5.633-1.097-12.604.702-18 3.145-9.436 11.752-16.645 15.298-26-9.733.116-15.308 11.497-18 20h-2c-3.999-8.555-8.537-19.876-19-20z" class="T"/><path d="M86 109l1 1-1-1z" class="G"/><path d="M118 109l1 1-1-1z" class="D"/><path d="M140 109l1 1-1-1z" class="B"/><path d="M161 109l1 1-1-1z" class="E"/><path d="M183 109v4h15v40h6v-28c0-3.101-.822-7.971 1.603-10.397 2.88-2.879 9.676-1.603 13.397-1.603v-4h-36m53 0v44h33v-5h-27v-16h25v-5h-25v-14h27v-4h-33m51 0v44h6v-36c3.905 7.411 6.293 16.065 8.997 24 1.016 2.984 1.725 8.067 4.512 9.968 4.094 2.792 6.674-1.765 7.82-4.973 3.385-9.476 7.404-19.195 9.671-28.995 3.194 10.806 1 24.744 1 36h6v-44c-2.599.002-6.236-.556-8.49 1.028-2.772 1.948-3.505 6.956-4.51 9.972-2.789 8.368-5.425 16.934-9 25-3.567-8.047-5.923-16.726-8.947-25-1.101-3.014-1.767-8.008-4.563-9.972-2.254-1.584-5.89-1.026-8.49-1.028z" class="T"/><path d="M296 109l1 1-1-1z" class="F"/><path d="M321 109l1 1-1-1z" class="B"/><path d="M362 109l1 1-1-1z" class="C"/><path d="M346 153h7c.873-3.682 2.036-9.735 5.418-11.972C362.514 138.319 371.243 140 376 140c1.121 6.515 2.633 12.755 10 13-2.237-15.144-10.975-29.254-15-44-2.645.009-6.116-.462-8.157 1.603-2.991 3.026-4.323 9.468-5.793 13.397-3.619 9.677-7.74 19.215-11.05 29m52-44v4c3.911 0 11.381-1.413 14.397 1.603C414.822 117.029 414 121.899 414 125v28h6v-40h15v-4h-37m54 0v44h6v-44h-6m25 0c2.311 7.239 8.408 15.876 14 21-5.586 7.039-12.493 14.704-16 23 9.79-.116 15.11-9.813 19-18 5.835 7.591 9.278 17.873 20 18-2.34-5.536-6.531-10.117-10-15-1.596-2.246-4.309-5.048-4.208-8 .089-2.627 2.344-4.981 3.784-7 3.265-4.575 6.916-8.964 9.424-14-9.621.114-13.701 8.279-18 16-5.779-6.78-8.057-15.882-18-16z" class="T"/><path d="M505 109l1 1-1-1z" class="B"/><path d="M680 109l1 1-1-1z" class="K"/><path d="M708 109l1 1-1-1z" class="N"/><path d="M736 109l1 1-1-1z" class="K"/><path d="M848 109l1 1-1-1z" class="I"/><path d="M34 110l1 1-1-1z" class="F"/><path d="M58 110l1 1-1-1z" class="B"/><path d="M79 110l1 1-1-1z" class="D"/><path d="M110 110l1 1-1-1m52 0l1 1-1-1z" class="H"/><path d="M371 110l1 1-1-1m133 0l1 1-1-1z" class="E"/><path d="M512 110l1 1-1-1z" class="G"/><use xlink:href="#B" x="3" y="5" class="Q"/><use xlink:href="#C" x="-5" y="5" class="J"/><use xlink:href="#B" x="8" y="5" class="Q"/><path d="M622 110l1 1-1-1m59 0l1 1-1-1z" class="K"/><path d="M707 110l1 1-1-1z" class="M"/><use xlink:href="#H" class="Q"/><path d="M737 110l1 1-1-1z" class="M"/><path d="M849 110l1 1-1-1z" class="I"/><path d="M59 111l1 1-1-1z" class="F"/><path d="M109 111l1 1-1-1z" class="E"/><path d="M137 111l1 1-1-1z" class="C"/><path d="M297 111l1 1-1-1z" class="E"/><path d="M371 111l1 1-1-1z" class="F"/><path d="M477 111l1 1-1-1z" class="D"/><path d="M485 111l1 1-1-1z" class="G"/><path d="M602 111l1 1-1-1z" class="K"/><path d="M612 111l1 1-1-1z" class="N"/><path d="M613 111l1 1-1-1z" class="I"/><path d="M623 111l1 1-1-1z" class="N"/><path d="M654 111c4.974 2.087 11.638 1 17 1-4.974-2.087-11.638-1-17-1z" class="J"/><path d="M706 111l1 1-1-1z" class="I"/><path d="M717 111l1 1-1-1z" class="M"/><path d="M718 111.653c-19.266 6.043-11.497 40.469 9.999 33.694 18.12-5.711 9.798-39.904-9.999-33.694z" class="U"/><path d="M727 111l1 1-1-1z" class="M"/><path d="M738 111l1 1-1-1z" class="I"/><path d="M824 111c4.724 1.982 10.91 1 16 1-4.724-1.982-10.91-1-16-1z" class="Q"/><path d="M850 111l1 1-1-1z" class="N"/><path d="M32 112l1 1-1-1z" class="F"/><path d="M43 112c2.332.985 4.457.981 7 1-2.331-.985-4.457-.981-7-1z" class="G"/><path d="M60 112l1 1-1-1z" class="F"/><path d="M88 112l1 1-1-1z" class="C"/><path d="M116 112l1 1-1-1m31 0c2.052.874 3.747.953 6 1-2.052-.874-3.747-.953-6-1z" class="G"/><path d="M297 112l1 1-1-1z" class="F"/><path d="M320 112l1 1-1-1m41 0l1 1-1-1z" class="B"/><path d="M503 112l1 1-1-1z" class="H"/><path d="M615 112l1 1-1-1z" class="J"/><path d="M654 112v14c5.523 0 14.914 1.791 19.772-1.179 4.021-2.459 4.188-9.209.08-11.642C668.886 110.238 659.605 112 654 112z" class="U"/><path d="M673 112l1 1-1-1z" class="K"/><path d="M705 112l1 1-1-1z" class="O"/><path d="M715 112l1 1-1-1m14 0l1 1-1-1z" class="K"/><path d="M739 112l1 1-1-1z" class="J"/><path d="M824 112v15h16c-4.471-1.876-10.183-1-15-1 0-4.541.769-9.784-1-14z" class="S"/><path d="M825 112v14c4.785 0 12.611 1.483 16.852-1.028 4.109-2.433 4.088-9.373 0-11.793C837.488 110.595 829.901 112 825 112z" class="U"/><path d="M841 112l1 1-1-1z" class="K"/><path d="M31 113l1 1-1-1z" class="E"/><path d="M40 113l1 1-1-1z" class="G"/><path d="M52 113l1 1-1-1z" class="F"/><path d="M61 113l1 1-1-1z" class="E"/><path d="M81 113l1 1-1-1z" class="D"/><path d="M108 113l1 1-1-1z" class="G"/><path d="M145 113l1 1-1-1z" class="E"/><path d="M156 113l1 1-1-1z" class="F"/><path d="M165 113l1 1-1-1z" class="B"/><path d="M183 113c4.471 1.876 10.183 1 15 1-4.471-1.876-10.183-1-15-1m59 0c7.409 3.109 18.975 1 27 1-7.409-3.109-18.975-1-27-1z" class="L"/><path d="M372 113l1 1-1-1z" class="C"/><path d="M398 113c4.471 1.876 10.183 1 15 1-4.471-1.876-10.183-1-15-1m22 0c4.471 1.876 10.183 1 15 1-4.471-1.876-10.183-1-15-1z" class="L"/><path d="M502 113l1 1-1-1z" class="C"/><path d="M510 113l1 1-1-1z" class="E"/><path d="M590 113l1 1-1-1z" class="M"/><path d="M598 113l1 1-1-1z" class="P"/><path d="M675 113l1 1-1-1z" class="I"/><path d="M713 113l1 1-1-1m18 0l1 1-1-1z" class="M"/><path d="M843 113l1 1-1-1m8 0l1 1-1-1z" class="O"/><path d="M38 114l1 1-1-1z" class="F"/><path d="M89 114l1 1-1-1z" class="B"/><path d="M135 114l1 1-1-1m69 0v39c3.206-7.639 1-19.729 1-28 0-3.702.441-7.565-1-11z" class="G"/><path d="M242 114v13c1.591-3.791 1.591-9.209 0-13z" class="R"/><path d="M298 114l1 1-1-1m62 0l1 1-1-1z" class="E"/><path d="M413 114v39c1.441-3.435 1-7.298 1-11 0-8.271 2.206-20.361-1-28z" class="G"/><path d="M479 114l1 1-1-1m8 0l1 1-1-1z" class="D"/><path d="M509 114l1 1-1-1z" class="B"/><path d="M597 114l1 1-1-1z" class="I"/><path d="M625 114l1 1-1-1z" class="K"/><use xlink:href="#I" class="Q"/><path d="M712 114l1 1-1-1m20 0l1 1-1-1z" class="K"/><path d="M844 114l1 1-1-1z" class="J"/><path d="M30 115l1 1-1-1z" class="C"/><path d="M37 115l1 1-1-1m18 0l1 1-1-1z" class="F"/><path d="M62 115l1 1-1-1z" class="C"/><path d="M114 115l1 1-1-1z" class="B"/><path d="M159 115l1 1-1-1z" class="F"/><path d="M298 115l1 1-1-1z" class="H"/><path d="M319 115l1 1-1-1z" class="F"/><path d="M360 115l1 1-1-1z" class="H"/><path d="M596 115l1 1-1-1z" class="P"/><path d="M703 115l1 1-1-1z" class="O"/><path d="M711 115l1 1-1-1m22 0l1 1-1-1z" class="K"/><path d="M741 115l1 1-1-1z" class="J"/><path d="M30 116l1 1-1-1z" class="H"/><path d="M83 116l1 1-1-1z" class="G"/><path d="M106 116l1 1-1-1m28 0l1 1-1-1z" class="E"/><path d="M160 116l1 1-1-1z" class="H"/><path d="M366 116l-6 18h13c-1.927-5.914-3.69-12.739-7-18z" fill="#f7a600"/><path d="M373 116l1 1-1-1z" class="G"/><path d="M488 116l1 1-1-1z" class="H"/><path d="M500 116l1 1-1-1z" class="D"/><path d="M588 116l1 1-1-1z" class="K"/><path d="M619 116l1 1-1-1z" class="O"/><path d="M710 116l1 1-1-1m24 0l1 1-1-1z" class="J"/><path d="M845 116v5c.83-2.03.83-2.97 0-5m7 0v6c.951-2.285.951-3.715 0-6z" class="S"/><use xlink:href="#J" fill="#d18e19"/><path d="M91 117l1 1-1-1z" class="C"/><use xlink:href="#I" x="-549" y="3" class="L"/><path d="M140 117l1 1-1-1m27 0v3c.696-1.554.696-1.446 0-3z" class="H"/><path d="M293 117l1 1-1-1z" class="B"/><path d="M299 117l1 1-1-1z" class="C"/><path d="M318 117l1 1-1-1z" class="E"/><path d="M324 117c-1.302 11.653 0 24.229 0 36 2.903-6.919 1-17.52 1-25 0-3.702.441-7.565-1-11z" class="R"/><path d="M359 117l1 1-1-1z" class="D"/><path d="M365 117l1 1-1-1z" class="F"/><path d="M481 117l1 1-1-1m8 0l1 1-1-1z" class="E"/><path d="M507 117l1 1-1-1z" class="C"/><path d="M595 117l1 1-1-1z" class="J"/><path d="M626 117c-1.788 1.422-2.706 1.697-5 2 2.223 1.066 6.303 1.457 5-2z" class="Q"/><path d="M647 117v34c2.802-6.677 1-16.785 1-24 0-3.419.328-6.834-1-10z" class="S"/><path d="M677 117v4c.71-1.759.71-2.241 0-4z" class="I"/><path d="M702 117l1 1-1-1z" class="O"/><path d="M742 117l1 1-1-1z" class="J"/><path d="M29 118v5c.83-2.03.83-2.97 0-5z" class="R"/><path d="M57 118l1 1-1-1z" class="H"/><path d="M63 118v3c.696-1.554.696-1.446 0-3z" class="G"/><path d="M105 118l1 1-1-1z" class="B"/><path d="M112 118l1 1-1-1z" class="H"/><path d="M140 118v4c.71-1.759.71-2.241 0-4z" class="R"/><path d="M161 118l1 1-1-1z" class="F"/><path d="M293 118v35c2.923-6.967.927-17.473 1.004-25 .036-3.548.782-6.872-1.004-10z" class="R"/><path d="M299 118l1 1-1-1z" class="H"/><path d="M318 118l1 1-1-1z" class="F"/><path d="M365 118l1 1-1-1z" class="E"/><path d="M367 118l1 1-1-1z" class="C"/><path d="M482 118l1 1-1-1z" class="H"/><path d="M506 118l1 1-1-1z" class="F"/><path d="M620 118l1 1-1-1z" class="M"/><path d="M709 118l1 1-1-1z" class="K"/><path d="M735 118l1 1-1-1z" class="N"/><use xlink:href="#J" x="21" y="2" class="R"/><path d="M85 119l1 1-1-1m7 0l1 1-1-1z" class="B"/><path d="M294 119l1 1-1-1m80 0l1 1-1-1z" class="F"/><path d="M490 119l1 1-1-1z" class="H"/><path d="M498 119l1 1-1-1z" class="G"/><path d="M587 119l1 1-1-1z" class="I"/><path d="M594 119l1 1-1-1z" class="J"/><path d="M701 119l1 1-1-1m42 0l1 1-1-1z" class="N"/><path d="M111 120l1 1-1-1m189 0l1 1-1-1z" class="C"/><path d="M317 120l1 1-1-1z" class="E"/><path d="M358 120l1 1-1-1z" class="F"/><path d="M364 120l1 1-1-1z" class="B"/><path d="M368 120l1 1-1-1z" class="H"/><path d="M483 120l1 1-1-1z" class="E"/><path d="M701 120l1 1-1-1z" class="I"/><path d="M708 120l1 1-1-1m28 0l1 1-1-1z" class="K"/><path d="M743 120l1 1-1-1z" class="I"/><use xlink:href="#H" x="-662" y="11" class="R"/><path d="M103 121l1 1-1-1z" class="C"/><use xlink:href="#E" x="-600" y="15" class="R"/><path d="M300 121l1 1-1-1z" class="H"/><path d="M317 121l1 1-1-1z" class="F"/><path d="M368 121l1 1-1-1m7 0l1 1-1-1z" class="C"/><path d="M484 121l1 1-1-1z" class="B"/><path d="M504 121l1 1-1-1z" class="D"/><use xlink:href="#I" x="-90" y="7" class="O"/><path d="M845 121l1 1-1-1z" class="I"/><path d="M36 122l1 1-1-1z" class="H"/><path d="M87 122l1 1-1-1z" class="B"/><path d="M94 122l1 1-1-1z" class="D"/><path d="M295 122l1 1-1-1z" class="B"/><path d="M322 122l1 1-1-1z" class="D"/><path d="M357 122l1 1-1-1z" class="C"/><path d="M375 122l1 1-1-1z" class="H"/><path d="M492 122l1 1-1-1m4 0l1 1-1-1z" class="B"/><path d="M586 122v3c.696-1.554.696-1.446 0-3z" class="P"/><path d="M676 122l1 1-1-1z" class="N"/><path d="M683 122l1 1-1-1z" class="O"/><path d="M700 122v3c.696-1.554.696-1.446 0-3z" class="K"/><path d="M707 122l1 1-1-1m30 0l1 1-1-1z" class="P"/><path d="M37 123l1 1-1-1z" class="D"/><path d="M102 123l1 1-1-1z" class="B"/><path d="M109 123l1 1-1-1z" class="D"/><path d="M141 123l1 1-1-1z" class="F"/><path d="M301 123l1 1-1-1z" class="D"/><path d="M316 123l1 1-1-1z" class="E"/><path d="M363 123l1 1-1-1z" class="C"/><path d="M369 123l1 1-1-1z" class="F"/><path d="M495 123l1 1-1-1z" class="E"/><use xlink:href="#K" class="W"/><use xlink:href="#I" x="61" y="9" class="M"/><path d="M844 123l1 1-1-1z" class="J"/><path d="M851 123l1 1-1-1z" class="P"/><path d="M39 124l1 1-1-1z" class="C"/><path d="M88 124l1 1-1-1z" class="E"/><path d="M95 124l1 1-1-1z" class="F"/><path d="M134 124l1 1-1-1z" class="D"/><path d="M143 124l1 1-1-1z" class="C"/><path d="M316 124l1 1-1-1z" class="F"/><path d="M369 124l1 1-1-1z" class="E"/><path d="M376 124l1 1-1-1z" class="D"/><path d="M486 124l1 1-1-1z" class="B"/><path d="M675 124l1 1-1-1m7 0l1 1-1-1z" class="I"/><path d="M843 124l1 1-1-1m8 0l1 1-1-1z" class="K"/><path d="M30 125l1 1-1-1z" class="C"/><path d="M41 125l1 1-1-1z" class="B"/><path d="M89 125l1 1-1-1z" class="H"/><path d="M145 125l1 1-1-1m151 0l1 1-1-1z" class="B"/><path d="M321 125l1 1-1-1z" class="D"/><path d="M356 125l1 1-1-1z" class="B"/><path d="M362 125l1 1-1-1z" class="H"/><path d="M501 125l1 1-1-1z" class="B"/><path d="M592 125v6c.951-2.285.951-3.715 0-6z" class="J"/><path d="M673 125l1 1-1-1z" class="K"/><path d="M700 125v7c1.06-2.534 1.06-4.466 0-7m44.333.667c-.055.055-.111 1.111.334.666.055-.055.111-1.111-.334-.666z" class="Q"/><path d="M842 125l1 1-1-1z" class="M"/><use xlink:href="#F" x="4" y="19" class="B"/><path d="M100 126l1 1-1-1z" class="D"/><path d="M107 126l1 1-1-1m28 0l1 1-1-1m13 0c1.248.685 1.548.749 3 1-1.248-.685-1.548-.749-3-1z" class="G"/><path d="M302 126l1 1-1-1z" class="D"/><path d="M315 126l1 1-1-1z" class="C"/><path d="M362 126l1 1-1-1z" class="E"/><path d="M370 126l1 1-1-1z" class="B"/><path d="M654 126c4.974 2.087 11.638 1 17 1-4.974-2.087-11.638-1-17-1z" class="J"/><path d="M681 126l1 1-1-1z" class="N"/><path d="M738 126v5c.83-2.03.83-2.97 0-5z" class="Q"/><path d="M840 126l1 1-1-1z" class="P"/><path d="M850 126l1 1-1-1z" class="N"/><path d="M49 127c1.248.685 1.548.749 3 1-1.248-.685-1.548-.749-3-1m41 0l1 1-1-1z" class="C"/><path d="M97 127l1 1-1-1z" class="D"/><use xlink:href="#D" x="-573" y="22" class="B"/><path d="M315 127l1 1-1-1z" class="H"/><path d="M355 127l1 1-1-1z" class="E"/><path d="M377 127l1 1-1-1z" class="B"/><path d="M488 127l1 1-1-1z" class="G"/><path d="M607 127v5c.83-2.03.83-2.97 0-5z" class="J"/><path d="M627 127c0 6.096 2.586 19.379-3 23 1.506.683 2.315.826 4 1 0-7.233 1.806-17.313-1-24z" class="Q"/><path d="M680 127l1 1-1-1z" class="K"/><path d="M706 127v4c.71-1.759.71-2.241 0-4z" class="Q"/><path d="M849 127l1 1-1-1z" class="I"/><path d="M54 128l1 1-1-1z" class="G"/><path d="M99 128l1 1-1-1z" class="F"/><path d="M137 128l1 1-1-1z" class="H"/><path d="M157.667 128.333c-.445.445.611.389.666.334.445-.445-.611-.389-.666-.334M297 128l1 1-1-1z" class="D"/><path d="M320 128l1 1-1-1z" class="C"/><path d="M355 128l1 1-1-1z" class="H"/><path d="M361 128l1 1-1-1z" class="B"/><path d="M499 128l1 1-1-1z" class="E"/><use xlink:href="#I" x="-98" y="14" class="W"/><use xlink:href="#I" x="-5" y="14" class="Q"/><use xlink:href="#I" x="-4" y="14" class="W"/><path d="M848 128l1 1-1-1z" class="I"/><path d="M34 129l1 1-1-1m23 0l1 1-1-1z" class="D"/><path d="M105 129l1 1-1-1z" class="B"/><path d="M138 129l1 1-1-1z" class="E"/><path d="M161 129l1 1-1-1z" class="C"/><path d="M303 129l1 1-1-1z" class="G"/><path d="M314 129l1 1-1-1z" class="C"/><path d="M371 129l1 1-1-1z" class="G"/><path d="M378 129l1 1-1-1z" class="E"/><use xlink:href="#I" x="-185" y="15" class="C"/><path d="M847 129l1 1-1-1z" class="J"/><path d="M36 130l1 1-1-1z" class="D"/><path d="M59 130l1 1-1-1z" class="C"/><path d="M92 130l1 1-1-1z" class="D"/><path d="M140 130l1 1-1-1m23 0l1 1-1-1z" class="C"/><path d="M314 130l1 1-1-1m5 0l1 1-1-1z" class="H"/><path d="M354 130l1 1-1-1z" class="D"/><path d="M378 130l1 1-1-1m112 0l1 1-1-1z" class="F"/><path d="M680 130l1 1-1-1z" class="K"/><path d="M744 130v4c.71-1.759.71-2.241 0-4z" class="Q"/><use xlink:href="#F" x="-1" y="24" class="L"/><path d="M104 131l1 1-1-1z" class="E"/><use xlink:href="#B" x="-458" y="26" class="L"/><path d="M298 131l1 1-1-1z" class="D"/><path d="M319 131l1 1-1-1z" class="C"/><path d="M360 131l1 1-1-1z" class="D"/><use xlink:href="#I" x="-91" y="17" class="Q"/><path d="M681 131l1 1-1-1z" class="N"/><path d="M843 131l1 1-1-1z" class="M"/><use xlink:href="#F" x="3" y="25" class="F"/><path d="M103 132l1 1-1-1m44.667.333c-.445.445.611.389.666.334.445-.445-.611-.389-.666-.334z" class="H"/><path d="M242 132c6.928 2.907 17.503 1 25 1-6.928-2.907-17.503-1-25-1z" class="L"/><path d="M304 132l1 1-1-1z" class="B"/><path d="M313 132l1 1-1-1z" class="C"/><path d="M372 132l1 1-1-1z" class="D"/><path d="M379 132l1 1-1-1z" class="C"/><path d="M608 132c4.216 1.769 9.459 1 14 1-4.217-1.769-9.459-1-14-1z" class="J"/><path d="M672 132l1 1-1-1z" class="O"/><path d="M700.333 132.667c-.055.055-.111 1.111.334.666.055-.055.111-1.111-.334-.666M824 132v19c2.02-4.813 2.02-14.187 0-19z" class="J"/><path d="M825 132c4.724 1.982 10.91 1 16 1-4.724-1.982-10.91-1-16-1z" class="S"/><use xlink:href="#F" x="7" y="26" class="B"/><path d="M94 133l1 1-1-1z" class="G"/><use xlink:href="#D" x="-574" y="28" class="B"/><path d="M242 133v14c1.667-3.972 1.667-10.028 0-14z" class="R"/><path d="M313 133l1 1-1-1m5 0l1 1-1-1z" class="H"/><path d="M353 133l1 1-1-1z" class="F"/><use xlink:href="#I" x="-324" y="19" class="L"/><path d="M488 133l1 1-1-1z" class="H"/><path d="M500 133l1 1-1-1z" class="G"/><path d="M621 133v3c.696-1.554.696-1.446 0-3z" class="S"/><path d="M674 133l1 1-1-1z" class="O"/><path d="M682 133l1 1-1-1z" class="J"/><use xlink:href="#K" y="10" class="M"/><path d="M52 134l1 1-1-1z" class="B"/><path d="M63 134l1 1-1-1z" class="C"/><path d="M102 134l1 1-1-1z" class="D"/><path d="M156 134l1 1-1-1z" class="B"/><path d="M167 134l1 1-1-1z" class="G"/><path d="M299 134l1 1-1-1z" class="D"/><path d="M318 134l1 1-1-1z" class="C"/><path d="M360 134c3.959 1.661 8.737 1 13 1-3.959-1.661-8.737-1-13-1z" class="G"/><path d="M487 134l1 1-1-1z" class="C"/><use xlink:href="#I" x="-97" y="20" class="N"/><path d="M675 134l1 1-1-1z" class="J"/><path d="M54 135l1 1-1-1z" class="C"/><path d="M95 135v18c1.952-4.651 1.952-13.349 0-18z" class="G"/><path d="M158 135l1 1-1-1z" class="C"/><path d="M305 135l1 1-1-1z" class="B"/><path d="M312 135l1 1-1-1m40 0l1 1-1-1z" class="C"/><path d="M380 135l1 1-1-1z" class="G"/><path d="M494 135l1 1-1-1z" class="B"/><path d="M593 135l1 1-1-1z" class="O"/><path d="M56 136l1 1-1-1z" class="D"/><path d="M160 136l1 1-1-1m8 0l1 1-1-1z" class="C"/><path d="M300 136l1 1-1-1m17 0l1 1-1-1z" class="H"/><path d="M493 136l1 1-1-1z" class="G"/><path d="M495 136l1 1-1-1z" class="H"/><use xlink:href="#I" x="-62" y="22" fill="#f2942f"/><path d="M676 136l1 1-1-1z" class="M"/><path d="M683 136v7c1.059-2.534 1.059-4.466 0-7z" class="S"/><path d="M701 136l1 1-1-1z" class="P"/><path d="M57 137l1 1-1-1z" class="D"/><path d="M64 137v6c.951-2.285.951-3.715 0-6z" class="L"/><path d="M300 137l1 1-1-1z" class="C"/><path d="M306 137l1 1-1-1z" class="E"/><path d="M317 137l1 1-1-1z" class="C"/><path d="M485 137l1 1-1-1z" class="B"/><path d="M503 137l1 1-1-1z" class="D"/><path d="M587 137l1 1-1-1z" class="P"/><path d="M701 137l1 1-1-1z" class="K"/><path d="M708 137l1 1-1-1m28 0l1 1-1-1z" class="I"/><path d="M743 137l1 1-1-1z" class="O"/><use xlink:href="#I" x="85" y="23" class="P"/><path d="M28 138c2.052.874 3.747.953 6 1-2.052-.874-3.747-.953-6-1m104 0c2.15 1.005 4.118 1.53 6 3 1.356-3.598-3.465-2.99-6-3m30 0l1 1-1-1z" class="G"/><path d="M306 138l1 1-1-1z" class="F"/><path d="M311 138l1 1-1-1z" class="D"/><path d="M351 138l1 1-1-1z" class="B"/><path d="M381 138l1 1-1-1z" class="F"/><path d="M484 138l1 1-1-1z" class="E"/><path d="M587 138l1 1-1-1z" class="K"/><path d="M594 138l1 1-1-1z" class="M"/><path d="M28 139v4c.71-1.76.71-2.241 0-4z" class="L"/><use xlink:href="#J" x="-2" y="22" class="E"/><path d="M58 139v4c.71-1.759.71-2.241 0-4z" class="R"/><path d="M301 139l1 1-1-1z" class="H"/><path d="M316 139l1 1-1-1z" class="F"/><path d="M491 139l1 1-1-1z" class="D"/><path d="M497 139l1 1-1-1z" class="B"/><path d="M620 139l1 1-1-1m82 0l1 1-1-1z" class="I"/><path d="M709 139l1 1-1-1z" class="P"/><path d="M735 139l1 1-1-1m7 0l1 1-1-1z" class="I"/><use xlink:href="#I" x="114" y="25" class="O"/><path d="M132 140v3c.696-1.554.696-1.446 0-3z" class="G"/><path d="M301 140l1 1-1-1z" class="C"/><path d="M307 140l1 1-1-1m9 0l1 1-1-1m34 0l1 1-1-1z" class="E"/><path d="M375 140l1 1-1-1z" class="D"/><path d="M382 140l1 1-1-1z" class="E"/><path d="M505 140l1 1-1-1z" class="H"/><path d="M588 140l1 1-1-1m7 0l1 1-1-1m167 0l1 1-1-1m7 0l1 1-1-1z" class="J"/><path d="M790 140l1 1-1-1z" class="I"/><path d="M34 141l1 1-1-1m273 0l1 1-1-1z" class="F"/><path d="M310 141l1 1-1-1z" class="D"/><path d="M350 141l1 1-1-1m32 0l1 1-1-1z" class="H"/><path d="M482 141l1 1-1-1z" class="G"/><path d="M506 141l1 1-1-1z" class="D"/><path d="M703 141l1 1-1-1z" class="I"/><path d="M139 142l1 1-1-1z" class="E"/><path d="M302 142l1 1-1-1z" class="H"/><path d="M315 142l1 1-1-1z" class="F"/><path d="M356 142l1 1-1-1z" class="G"/><path d="M489 142l1 1-1-1z" class="D"/><path d="M499 142l1 1-1-1z" class="G"/><path d="M589 142l1 1-1-1z" class="J"/><path d="M770 142l1 1-1-1z" class="M"/><path d="M789 142l1 1-1-1m7 0l1 1-1-1z" class="P"/><path d="M35 143l1 1-1-1z" class="B"/><path d="M58 143l1 1-1-1z" class="H"/><path d="M64.333 143.667c-.055.055-.111 1.111.333.666.055-.055.111-1.111-.333-.666M162 143l1 1-1-1z" class="E"/><path d="M302 143l1 1-1-1z" class="C"/><path d="M315 143l1 1-1-1z" class="E"/><path d="M349 143l1 1-1-1z" class="D"/><path d="M376 143l1 1-1-1z" class="C"/><path d="M383 143l1 1-1-1z" class="D"/><path d="M488 143l1 1-1-1z" class="H"/><path d="M683 143v4c.71-1.76.71-2.24 0-4z" class="J"/><path d="M704 143l1 1-1-1z" class="O"/><path d="M740 143l1 1-1-1m23 0l1 1-1-1z" class="J"/><path d="M771 143l1 1-1-1z" class="K"/><path d="M788 143l1 1-1-1z" class="J"/><path d="M36 144l1 1-1-1z" class="E"/><path d="M140 144l1 1-1-1z" class="B"/><path d="M168 144l1 1-1-1z" class="G"/><use xlink:href="#B" x="-293" y="39" class="D"/><path d="M480 144l1 1-1-1m28 0l1 1-1-1z" class="F"/><path d="M599 144l1 1-1-1m16 0l1 1-1-1z" class="K"/><path d="M677 144v4c.71-1.759.71-2.241 0-4z" class="Q"/><path d="M714 144l1 1-1-1m16 0l1 1-1-1z" class="O"/><path d="M772 144l1 1-1-1m23 0l1 1-1-1z" class="P"/><path d="M29 145l1 1-1-1z" class="G"/><path d="M37 145l1 1-1-1z" class="E"/><path d="M133 145l1 1-1-1z" class="C"/><path d="M141 145l1 1-1-1m20 0l1 1-1-1z" class="D"/><path d="M303 145l1 1-1-1m11 0l1 1-1-1z" class="F"/><path d="M355 145l1 1-1-1z" class="C"/><path d="M377 145l1 1-1-1z" class="F"/><path d="M479 145l1 1-1-1z" class="C"/><path d="M487 145l1 1-1-1z" class="E"/><path d="M501 145l1 1-1-1z" class="D"/><path d="M509 145l1 1-1-1z" class="E"/><path d="M591 145l1 1-1-1z" class="J"/><path d="M601 145l1 1-1-1z" class="N"/><path d="M613 145l1 1-1-1z" class="K"/><path d="M716 145l1 1-1-1z" class="O"/><path d="M728 145l1 1-1-1m36 0l1 1-1-1z" class="K"/><path d="M774 145l1 1-1-1z" class="J"/><path d="M785 145l1 1-1-1z" class="I"/><path d="M38 146l1 1-1-1z" class="F"/><path d="M63 146l1 1-1-1m97 0l1 1-1-1z" class="G"/><path d="M303 146l1 1-1-1m11 0l1 1-1-1z" class="E"/><path d="M348 146l1 1-1-1z" class="F"/><path d="M377 146l1 1-1-1z" class="E"/><path d="M384 146l1 1-1-1z" class="B"/><path d="M486 146l1 1-1-1z" class="F"/><path d="M592 146l1 1-1-1z" class="I"/><use xlink:href="#B" x="2" y="41" class="O"/><use xlink:href="#H" x="-115" y="36" class="S"/><use xlink:href="#B" x="9" y="41" class="I"/><path d="M621.667 146.333c-.445.445.611.389.666.334.445-.445-.611-.389-.666-.334m98 0c-.445.445.611.389.666.334.445-.445-.611-.389-.666-.334z" class="O"/><path d="M721 146c1.506.683 2.315.826 4 1-1.506-.683-2.315-.826-4-1z" class="S"/><use xlink:href="#B" x="124" y="41" class="P"/><path d="M765 146l1 1-1-1z" class="I"/><use xlink:href="#B" x="176" y="41" class="J"/><use xlink:href="#B" x="178" y="41" class="N"/><use xlink:href="#B" x="180" y="41" class="I"/><path d="M794 146l1 1-1-1z" class="N"/><path d="M40 147l1 1-1-1z" class="F"/><path d="M53 147l1 1-1-1z" class="C"/><path d="M144 147l1 1-1-1z" class="F"/><path d="M158 147l1 1-1-1m84 0c7.649 3.21 19.712 1 28 1-7.649-3.21-19.712-1-28-1z" class="G"/><path d="M354 147l1 1-1-1z" class="F"/><path d="M593 147l1 1-1-1z" class="J"/><path d="M620 147l1 1-1-1m173 0l1 1-1-1z" class="K"/><path d="M31 148l1 1-1-1z" class="D"/><use xlink:href="#G" x="-35" y="40" class="G"/><path d="M135 148l1 1-1-1z" class="C"/><use xlink:href="#B" x="-454" y="43" class="G"/><use xlink:href="#H" x="-571" y="38" class="R"/><use xlink:href="#B" x="-447" y="43" class="B"/><path d="M166 148l1 1-1-1z" class="D"/><path d="M269 148v5c.83-2.031.83-2.97 0-5z" class="L"/><path d="M304 148l1 1-1-1m9 0l1 1-1-1z" class="F"/><path d="M347 148l1 1-1-1z" class="C"/><path d="M354 148l1 1-1-1z" class="E"/><path d="M378 148l1 1-1-1z" class="B"/><path d="M385 148l1 1-1-1z" class="E"/><path d="M477 148l1 1-1-1z" class="B"/><path d="M503 148l1 1-1-1z" class="E"/><path d="M511 148l1 1-1-1z" class="B"/><path d="M594 148l1 1-1-1m83 0v3c.696-1.554.696-1.446 0-3z" class="N"/><path d="M709 148l1 1-1-1m26 0l1 1-1-1z" class="M"/><path d="M767 148l1 1-1-1z" class="I"/><path d="M792 148l1 1-1-1z" class="N"/><path d="M32 149l1 1-1-1z" class="B"/><path d="M61 149l1 1-1-1m75 0l1 1-1-1z" class="C"/><path d="M165 149l1 1-1-1z" class="F"/><path d="M304 149l1 1-1-1z" class="E"/><path d="M385 149l1 1-1-1z" class="F"/><path d="M484 149l1 1-1-1z" class="B"/><path d="M504 149l1 1-1-1z" class="H"/><path d="M512 149l1 1-1-1z" class="E"/><path d="M596 149l1 1-1-1z" class="I"/><path d="M617 149l1 1-1-1z" class="M"/><path d="M623 149l1 1-1-1z" class="P"/><path d="M685 149l1 1-1-1z" class="K"/><path d="M768 149l1 1-1-1z" class="O"/><path d="M790 149l1 1-1-1z" class="P"/><path d="M33 150l1 1-1-1m104 0l1 1-1-1z" class="E"/><path d="M164 150l1 1-1-1m189 0l1 1-1-1z" class="B"/><path d="M598 150l1 1-1-1m17 0l1 1-1-1z" class="I"/><path d="M623 150l1 1-1-1z" class="K"/><path d="M712 150l1 1-1-1z" class="N"/><path d="M770 150l1 1-1-1z" class="J"/><path d="M35 151l1 1-1-1z" class="G"/><path d="M58 151l1 1-1-1m81 0l1 1-1-1z" class="B"/><path d="M305 151l1 1-1-1z" class="F"/><path d="M312 151l1 1-1-1m34 0l1 1-1-1z" class="B"/><path d="M379 151l1 1-1-1z" class="G"/><path d="M386 151l1 1-1-1z" class="C"/><path d="M600 151l1 1-1-1z" class="K"/><path d="M612 151l1 1-1-1z" class="P"/><path d="M613 151l1 1-1-1z" class="K"/><path d="M648 151c2.052.874 3.747.953 6 1-2.052-.874-3.747-.953-6-1m30 0c2.613 1.098 5.164.993 8 1-2.613-1.098-5.164-.993-8-1z" class="S"/><path d="M715 151l1 1-1-1m13.667.333c-.445.445.611.389.666.334.445-.445-.611-.389-.666-.334z" class="O"/><use xlink:href="#B" x="172" y="46" class="Q"/><path d="M786 151l1 1-1-1z" class="O"/><path d="M37 152l1 1-1-1z" class="G"/><path d="M56 152l1 1-1-1m85 0l1 1-1-1z" class="B"/><path d="M161 152l1 1-1-1z" class="C"/><use xlink:href="#E" x="-456" y="46" class="L"/><path d="M386 152l1 1-1-1z" class="H"/><path d="M474 152l1 1-1-1z" class="C"/><path d="M482 152l1 1-1-1z" class="G"/><path d="M506 152l1 1-1-1z" class="B"/><path d="M514 152l1 1-1-1z" class="G"/><path d="M604 152c2.052.874 3.747.953 6 1-2.052-.874-3.747-.953-6-1m115 0c2.331.984 4.457.981 7 1-2.332-.985-4.457-.981-7-1m58 0c2.052.874 3.747.953 6 1-2.052-.874-3.747-.953-6-1z" class="S"/><use xlink:href="#F" y="46" class="L"/><path d="M52 153c1.248.685 1.548.749 3 1-1.248-.685-1.548-.749-3-1m91.667.333c-.445.445.611.389.666.334.445-.445-.611-.389-.666-.334z" class="B"/><path d="M158 153l1 1-1-1z" class="D"/><path d="M44 154c2.052.874 3.747.953 6 1-2.052-.874-3.747-.953-6-1m103 0c2.613 1.098 5.165.993 8 1-2.613-1.098-5.164-.993-8-1z" class="R"/><path d="M0 175v72h905v-72H0z" class="U"/><path d="M709 204h-6v6h6v35c2.784.058 5.291.352 8 1v-36h8v-6h-8c.301-3.311.778-7.008 4.133-8.656 1.832-.9 4.418-.289 5.839-1.981 1.36-1.619 1.005-4.417 1.028-6.363-3.797 0-8.392-.66-11.995.742-6.652 2.59-6.955 10.167-7.005 16.258M42 188v57h8v-57h-8m450 0v57h8v-25c5.129 0 10.579-.594 14.999 2.514 4.822 3.391 8.167 8.613 11.309 13.486 1.703 2.641 3.234 6.285 6.021 7.972 2.923 1.77 7.395 1.028 10.671 1.028-3.207-8.46-10.653-21.075-19-25 4.018-1.601 8.314-2.876 11.196-6.329 6.13-7.342 3.552-20.051-5.197-24.018C525.363 187.55 519.952 188 515 188h-23m153 0v18c-3.284-1.839-6.187-2.915-10-2.981-26.496-.458-23.467 47.616 3.998 42.754 2.878-.509 4.781-2 7.002-3.773 1.243 3.538 3.431 3.803 7 4v-58h-8m85 0v9h8v-9h-8m132 0v18c-3.284-1.839-6.187-2.915-10-2.981-19.004-.328-25.251 28.081-11.815 39.423 4.071 3.437 9.683 4.009 14.815 3.449 3.326-.363 5.456-1.86 8-3.891v4h7v-58h-8m-631 16h-5v6h5c0 9.032-2.5 22.508 1.148 30.895 1.72 3.955 11.85 8.41 14.205 2.792 2.214-5.285-5.905-5.623-7.035-9.746-1.943-7.089-.318-16.598-.318-23.941h7v-6h-7v-15c-7.932 2.92-8 7.324-8 15m184-15c-6.843 4.104-7 7.358-7 15h-5v6h5c0 9.032-2.5 22.508 1.148 30.895 1.72 3.955 11.85 8.41 14.205 2.792 2.214-5.285-5.905-5.623-7.035-9.746-1.943-7.089-.318-16.598-.318-23.941h7v-6h-7c0-4.817.876-10.529-1-15z" class="T"/><path d="M500 195v18c7.218 0 17.318 1.781 23.982-1.434 5.836-2.815 7.493-10.406 1.804-14.338C519.332 192.768 507.478 195 500 195z" class="U"/><path d="M182 232c-2.02-.249-4.645-1.04-6.627-.307-2.624.97-4.088 4.06-6.416 5.565-5.372 3.474-11.58.745-14.729-4.293-1.17-1.874-1.695-3.856-2.228-5.965h31c-.157-7.615-1.315-16.422-8.043-21.146-11.954-8.392-30.065-.646-30.914 14.146-.51 8.901-.189 17.828 7.961 23.297 10.48 7.033 28.543 2.081 29.996-11.297m5 0c.745 4.951 2.553 9.25 7.015 11.991 7.75 4.759 24.793 3.054 27.551-6.992.437-1.59.466-3.362.386-4.999-.414-8.514-7.948-10.531-14.952-12.371-2.945-.774-7.446-1.497-8.94-4.589-1.587-3.285 3.409-5.524 5.94-5.623 4.416-.173 7.273 2.99 9 6.583l8-1c-1.467-14.216-25.17-18.026-31.424-4.985-.743 1.55-1.138 3.265-1.087 4.985.431 14.396 17.698 8.49 23.849 16.51 4.593 5.99-7.435 8.72-11.319 6.537-2.806-1.576-4.277-5.271-7.277-6.354-2.03-.733-4.676.053-6.742.307m73-24a22.09 22.09 0 0 1-1-5h-7v42h8c0-8.478-2.021-20.016 1.148-27.996 1.772-4.464 6.973-8.855 11.704-5.397 3.385 2.475 3.14 6.653 3.148 10.393v23h8c0-8.907-1.864-20.573 1.728-28.96 1.901-4.441 7.696-7.611 11.993-4.297 3.139 2.42 3.231 6.652 3.275 10.257l.004 23h8v-22c0-4.27.462-8.94-1.148-12.996-4.083-10.284-17.563-9.316-23.852-2.004-6.577-5.849-18.414-9.101-24 0m95 24l-9-1c-.879 1.878-1.614 3.399-3.149 4.877-8.211 7.899-15.794-1.365-18.851-8.877h31c-.005-7.243-.453-14.497-6.105-19.786-12.551-11.744-31.058-1.742-32.721 13.786-.751 7.005.505 15.677 6.014 20.606 10.858 9.714 29.347 4.103 32.812-9.606m15-25v-4h-7v42h8c0-8.212-2.243-20.292.742-27.996 1.937-4.998 8.227-8.869 13.149-5.4 3.867 2.725 4.086 7.102 4.108 11.396l.001 22h8c0-10.261 2.464-24.19-.653-33.996-2.365-7.443-11.432-9.936-18.347-8.075-3.039.818-5.457 2.281-8 4.071m56 25c.74 4.915 2.511 9.268 7.015 11.91 9.455 5.547 28.198 2.288 28.499-10.91.237-10.394-11.08-11.437-18.513-14.044-2.259-.792-7.619-2.92-5.964-6.252 4.223-8.499 12.17 1.051 16.336 2.657 2.073.799 4.547.019 6.627-.361-2.452-15.436-30.903-18.051-32.577-1-1.067 10.868 10.999 12.198 18.576 14.75 3.048 1.027 7.953 3.159 5.339 7.121-6.359 9.639-13.265-2.156-18.711-4.178-1.98-.735-4.61.058-6.627.307M62 203v42h8c0-8.212-2.243-20.292.742-27.996 1.936-4.998 8.227-8.869 13.149-5.4 3.867 2.725 4.085 7.102 4.108 11.396L88 245h8v-23c0-4.226.597-9.086-1.457-12.957-3.288-6.196-11.298-6.868-17.543-5.818-3.043.511-5.466 2.126-8 3.775v-4h-7m40 0c1.142 11.392 7.937 23.306 11.95 34 1.61 4.29 3.957 10.027 9.776 7.396 3.511-1.588 4.463-7.147 5.698-10.396L141 204c-2.521.002-6.144-.574-8.301 1.028-2.494 1.851-3.359 6.21-4.38 8.972-2.352 6.358-4.446 12.856-7.319 19-2.852-6.435-5.077-13.326-7.333-20-.961-2.846-1.718-7.106-4.316-8.972-1.995-1.433-5.041-1.02-7.351-1.028m483 29c-2.73-.117-5.314-.499-8-1-1.937 2.811-3.795 5.928-7.04 7.387-7.71 3.468-13.764-4.782-14.96-11.387h30c-.001-7.816-.485-15.245-7.043-20.606-13.029-10.65-30.782.563-31.867 15.606-.518 7.187 1.005 15.697 7.004 20.362 10.757 8.364 29.384 3.563 31.906-10.362m115 0c-2.352-.177-5.43-1.037-7.625.117-2.213 1.163-3.44 3.732-5.479 5.177-5.433 3.849-11.648.865-14.887-4.305-1.197-1.911-1.616-3.818-2.009-5.989h30c-.001-7.378-.319-14.374-6.105-19.786-7.002-6.55-20.861-5.859-27.366 1.115-3.664 3.928-5.096 9.43-5.439 14.671-.449 6.883 1.31 14.935 7.004 19.362 10.757 8.364 29.384 3.563 31.906-10.362m30-29v42h8v-42h-8m18 0v42h8c0-8.212-2.243-20.292.742-27.996 1.937-4.998 8.227-8.869 13.149-5.4 3.867 2.725 4.086 7.102 4.108 11.396l.001 22h8v-25c-.008-4.692.109-9.988-3.419-13.606-3.66-3.753-9.704-3.773-14.581-3.289-3.553.353-6.143 1.886-9 3.895v-4h-7m80 29l-8-1c-6.492 12.401-18.895 8.283-22-4h31c-.154-7.468-1.489-16.432-8.093-21.03-11.903-8.288-30.121-.806-30.867 14.03-.448 8.92-.224 17.802 7.964 23.297C808.54 250.368 826.537 245.471 828 232z" class="T"/><path d="M152 220h22c-2.554-14.093-18.577-13.11-22 0m173 0h22c-1.376-3.938-3.079-7.81-7.015-9.82-7.319-3.737-14.21 2.869-14.985 9.82m230 0h22c-1.253-3.585-2.674-7.023-6.044-9.141-7.517-4.725-14.64 1.878-15.956 9.141m79.001-10.242c-13.861 2.233-11.534 32.296 2.998 29.565 13.526-2.543 11.826-31.954-2.998-29.565M670 220h22c-3.782-12.731-19.419-14.24-22 0m128 0h22c-2.554-14.093-18.577-13.11-22 0m53.004-10.282c-13.513 1.595-12.095 30.689 1.996 29.749 14.534-.97 13.236-31.546-1.996-29.749z" class="U"/><path d="M590 221v8h22v-8h-22z" class="T"/><defs ><path id="B" d="M601.667 105.333c-.445.445.611.389.666.334.445-.445-.611-.389-.666-.334z"/><path id="C" d="M611 105c1.248.685 1.549.749 3 1-1.248-.685-1.548-.749-3-1z"/><path id="D" d="M725 105c1.248.685 1.548.749 3 1-1.248-.685-1.548-.749-3-1z"/><path id="E" d="M762 106c2.052.874 3.747.953 6 1-2.052-.874-3.747-.953-6-1z"/><path id="F" d="M40.667 107.333c-.444.445.611.389.667.334.444-.445-.611-.389-.667-.334z"/><path id="G" d="M79 108c2.332.985 4.457.981 7 1-2.332-.985-4.457-.981-7-1z"/><path id="H" d="M720 110c1.769.779 3.036.912 5 1-1.769-.779-3.036-.912-5-1z"/><path id="I" d="M683.333 114.667c-.055.055-.111 1.111.334.666.055-.055.111-1.111-.334-.666z"/><path id="J" d="M36.333 117.667c-.056.055-.111 1.111.333.666.056-.055.111-1.111-.333-.666z"/><path id="K" d="M707.333 123.667c-.055.055-.111 1.111.334.666.055-.055.111-1.111-.334-.666m30 0c-.055.055-.111 1.111.334.666.055-.055.111-1.111-.334-.666z"/></defs></svg>